<!DOCTYPE svg PUBLIC "-//W3C//DTD SVG 1.1//EN" "http://www.w3.org/Graphics/SVG/1.1/DTD/svg11.dtd">
<!-- Uploaded to: SVG Repo, www.svgrepo.com, Transformed by: SVG Repo Mixer Tools -->
<svg fill="#8593ff" width="187px" height="187px" viewBox="-2.4 -2.4 28.80 28.80" id="sigma-circle-2" data-name="Flat Color" xmlns="http://www.w3.org/2000/svg" class="icon flat-color" stroke="#8593ff" stroke-width="0.40800000000000003" transform="rotate(0)">
<g id="SVGRepo_bgCarrier" stroke-width="0"/>
<g id="SVGRepo_tracerCarrier" stroke-linecap="round" stroke-linejoin="round"/>
<g id="SVGRepo_iconCarrier">
<circle id="primary" cx="12" cy="12" r="10" style="fill: #363636;"/>
<path id="secondary" d="M15,16H9a1,1,0,0,1-.92-.62,1,1,0,0,1,.21-1.09L10.59,12,8.29,9.71a1,1,0,0,1-.21-1.09A1,1,0,0,1,9,8h6a1,1,0,0,1,1,1v1a1,1,0,0,1-2,0H11.41l1.3,1.29a1,1,0,0,1,0,1.42L11.41,14H14a1,1,0,0,1,2,0v1A1,1,0,0,1,15,16Z" style="fill: #2c83ba;"/>
</g>
</svg>